# xmcd
#
# Track frame offsets:
#	150
#	34417
#	59080
#	78747
#	90112
#	117695
#	141590
#	167525
#	190067
#	215552
#
# Disc length: 3086 seconds
#
# Revision: 2
# Processed by: cddbd v1.5.2PL0 Copyright (c) Steve Scherf et al.
# Submitted via: dBpowerAMP V4.0
#
DISCID=950c0c0a
DTITLE=Sterero nova - Αεραπάζλ ντόνατ
DYEAR=1900
DGENRE=Other
TTITLE0=Ασύρματος κόσμος
TTITLE1=Το παζλ στον αέρα (12" Ραδιοφωνικό)
TTITLE2=Βόλτα με την Πιούζι
TTITLE3=6:00 πμ
TTITLE4=Σόνικα τριπ
TTITLE5=Αεραπάζλ ντόνατ (Μπι Μπι - Κλόφεν μιξ)
TTITLE6=Όναρ (Ντι - Μάους μιξ)
TTITLE7=Νέα Ζωή
TTITLE8=Το ταξίδι της φάλαινας
TTITLE9=Το δίκτυο
EXTD=
EXTT0=
EXTT1=
EXTT2=
EXTT3=
EXTT4=
EXTT5=
EXTT6=
EXTT7=
EXTT8=
EXTT9=
PLAYORDER=
